<svg id="au-logo" xmlns="http://www.w3.org/2000/svg" viewBox="0 0 202 48.03">
  <style>
    .cls-1 {
      fill: #140f50;
    }
  </style>
<path class="cls-1" d="M74.92,12.58h.2V.61h-11.74v5.99c4.24.61,8.4,2.51,11.54,5.98Z"></path><path class="cls-1" d="M49.53.61h-15.5L0,42.35v.2h20.79v-.19c-3.35-3.67-3.85-11.22,2.73-19.3l14.28-17.51v18.61c0,13.58,7.29,19,19.47,19s18.32-8.17,17.87-18.91h-.2c-2.33,7.29-7.52,11.94-13.79,11.94-6.86,0-11.62-3.45-11.62-12.27V.61Z"></path><path class="cls-1" d="M153.88,9.54v6.79c-.07,1.2-.53,1.72-1.51,2.38v.2h6.64v-.2c-.98-.66-1.44-1.18-1.51-2.38V5.57h-.2l-4.94,1.19v.2c1.01.53,1.52,1.26,1.52,2.58Z"></path><circle class="cls-1" cx="155.68" cy="2.2" r="2.2"></circle><path class="cls-1" d="M132.69,4.57v11.76c-.07,1.2-.53,1.72-1.51,2.38v.2h6.64v-.2c-.98-.66-1.44-1.18-1.51-2.38V.61h-.2l-4.94,1.19v.2c.98.54,1.52,1.26,1.52,2.58Z"></path><path class="cls-1" d="M103.51,18.91v-.2c-.85-.55-1.51-1.51-2.15-2.96l-.29-.7-6.03-14.45h-.81l-5.44,13.08c-1.32,3.17-1.73,4.16-3.59,5.02v.2h6.18v-.2c-1.64-.59-2.96-1.49-1.49-5.06l.04-.1h6.4l.63,1.52h0c.85,2.04.17,3.19-1.43,3.64v.2h7.98ZM90.33,12.58l2.8-6.78,2.8,6.78h-5.6Z"></path><path class="cls-1" d="M149.9,15.96v-6.57c0-2.43-1.76-3.82-4.7-3.82-4.98,0-6.16,3.22-5.35,4.97l3.23-.78v-.14c-.57-1.57.02-3.24,1.52-3.24,1.07,0,1.67.91,1.67,2.32v2.27c-4.48,1.26-7.15,2.58-7.15,5.18,0,1.99,1.4,3,3.45,3,1.18,0,2.68-.36,3.83-1.99v1.72h5.03v-.2c-1.07-.72-1.52-1.28-1.52-2.74ZM146.28,16.12c-.63.79-1.46,1.38-2.27,1.38-.96,0-1.47-.9-1.47-1.97,0-1.96,1.96-3.05,3.74-3.68v4.27h0Z"></path><path class="cls-1" d="M115.76,16.33V.61h-.2l-4.94,1.19v.2c.98.54,1.52,1.26,1.52,2.58v1.8c-.59-.45-1.55-.8-2.74-.8-3.33,0-5.84,2.66-5.84,7.02,0,4.07,1.93,6.61,4.98,6.61,1.68,0,2.77-.71,3.6-1.9v1.6h5.13v-.2c-.98-.66-1.44-1.18-1.51-2.38ZM112.14,16.52c-.53.41-1.21.76-1.82.76-1.96,0-2.95-2.06-3.06-4.42-.21-4.64,1.36-6.19,2.88-6.19,1.15,0,2,1.24,2,2.79v7.07Z"></path><path class="cls-1" d="M172.2,16.33V.61h-.2l-4.94,1.19v.2c.98.54,1.52,1.26,1.52,2.58v1.8c-.59-.45-1.55-.8-2.74-.8-3.33,0-5.84,2.66-5.84,7.02,0,4.07,1.93,6.61,4.98,6.61,1.68,0,2.77-.71,3.6-1.9v1.6h5.13v-.2c-.98-.66-1.44-1.18-1.51-2.38ZM168.57,16.52c-.53.41-1.21.76-1.82.76-1.96,0-2.95-2.06-3.06-4.42-.21-4.64,1.36-6.19,2.88-6.19,1.15,0,2,1.24,2,2.79v7.07h0Z"></path><path class="cls-1" d="M124.55,19.17c4.01,0,5.44-3.1,5.63-4.64h-.2c-.71,1.44-2.27,2.12-3.74,2.12-3.22,0-4.36-2.13-4.53-4.92h8.46c.27-3.96-2.06-6.16-5.28-6.16-3.97,0-6.68,3.1-6.68,6.65,0,3.64,2.33,6.95,6.34,6.95ZM124.46,6.42c1.47,0,2.27,1.46,2.22,4.47h-5c.03-2.5,1.16-4.47,2.78-4.47Z"></path><path class="cls-1" d="M180.98,19.17c4.01,0,5.44-3.1,5.63-4.64h-.2c-.71,1.44-2.27,2.12-3.74,2.12-3.22,0-4.36-2.13-4.53-4.92h8.46c.27-3.96-2.06-6.16-5.28-6.16-3.97,0-6.68,3.1-6.68,6.65,0,3.64,2.33,6.95,6.34,6.95ZM180.9,6.42c1.47,0,2.27,1.46,2.22,4.47h-5c.03-2.5,1.16-4.47,2.78-4.47Z"></path><path class="cls-1" d="M138.53,29.48h-4.01v.26c1.14.6,1.33,1.53.53,3.58h0,0s-1.7,4.37-1.7,4.37l-1.7-4.37c-.8-2.04-.57-2.9.33-3.58v-.26h-6.49v.26c1.08.56,1.47,1.29,2.38,3.58l3.64,9.23h.83l3.64-9.23h0c.86-2.19,1.14-2.91,2.55-3.58v-.26h0Z"></path><path class="cls-1" d="M119.55,25.84c0,1.21.99,2.2,2.2,2.2s2.2-.99,2.2-2.2-.99-2.2-2.2-2.2c-1.21,0-2.2.99-2.2,2.2Z"></path><path class="cls-1" d="M176.75,28.04c1.21,0,2.2-.99,2.2-2.2s-.99-2.2-2.2-2.2-2.2.99-2.2,2.2.99,2.2,2.2,2.2Z"></path><path class="cls-1" d="M123.57,39.97v-10.76h-.2l-4.94,1.19v.2c1.01.53,1.52,1.26,1.52,2.58v6.79c-.07,1.2-.53,1.72-1.51,2.38v.2h6.64v-.2c-.98-.66-1.44-1.18-1.51-2.38Z"></path><path class="cls-1" d="M178.58,39.97v-10.76h-.2l-4.94,1.19v.2c1.01.53,1.52,1.26,1.52,2.58v6.79c-.07,1.2-.53,1.72-1.51,2.38v.2h6.64v-.2c-.98-.66-1.44-1.18-1.51-2.38Z"></path><path class="cls-1" d="M115.99,39.97v-6.6c0-2.29-1.38-4.16-4.07-4.16-1.83,0-3.06.94-3.93,2.08v-2.08h-.2l-4.94,1.19v.2c1.01.53,1.52,1.26,1.52,2.58v6.79c-.07,1.2-.53,1.72-1.51,2.38v.2h6.64v-.2c-.98-.66-1.44-1.18-1.51-2.38v-7.33c.62-.98,1.44-1.54,2.34-1.54,1.84,0,2.04,1.58,2.04,2.84v6.02c-.07,1.2-.53,1.72-1.51,2.38v.2h6.64v-.2c-.98-.66-1.44-1.18-1.51-2.38Z"></path><path class="cls-1" d="M165.45,31.82c0-1.22.89-1.73,1.94-1.73,1.17,0,2.5.8,3.77,3.11h.3v-3.31c-.78-.24-1.64-.46-2.48-.58-.5-.08-1-.11-1.41-.11-2.58,0-4.79,1.63-4.79,4,0,4.46,6.55,4,6.55,6.73,0,1.43-.94,1.98-2.17,1.98-1.43,0-3.08-1.12-4.33-3.77h-.33l.23,3.85c1.12.51,2.65.82,4.33.82,2.7,0,5.15-1.48,5.15-4.18,0-4.54-6.75-4.16-6.75-6.81Z"></path><path class="cls-1" d="M97.27,24.45c1.59.48,2.52,1.48,2.52,2.95v7.65c0,4.48-2.26,6.1-4.6,6.1-3.26,0-4.48-2.4-4.48-6.1v-7.65c0-1.47.8-2.42,2.52-2.95v-.2h-8.24v.2c1.13.74,1.74,1.28,1.74,2.75v8.1c0,4.29,1.98,7.51,7.01,7.51,5.32,0,7.09-3.27,7.09-7.63v-7.98c0-1.47.62-2.13,1.72-2.75v-.2h-5.28v.2h0Z"></path><path class="cls-1" d="M144.59,42.81c4.01,0,5.44-3.1,5.63-4.64h-.2c-.71,1.44-2.27,2.12-3.74,2.12-3.22,0-4.36-2.13-4.53-4.92h8.46c.27-3.96-2.06-6.16-5.28-6.16-3.97,0-6.68,3.1-6.68,6.65,0,3.64,2.33,6.95,6.34,6.95ZM144.51,30.06c1.47,0,2.27,1.46,2.22,4.47h-5c.03-2.5,1.16-4.47,2.78-4.47Z"></path><path class="cls-1" d="M160.26,29.15c-1.32,0-2.71,1.07-3.56,2.91v-2.85h-.2l-4.94,1.19v.2c1.01.53,1.52,1.26,1.52,2.58v6.79c-.07,1.2-.53,1.72-1.51,2.38v.2h7.22v-.2c-1.2-.54-1.98-1.18-2.08-2.46v-6.67c1.15-1.03,3-1.39,4.51,0h.17v-3.64c-.21-.25-.59-.43-1.12-.43Z"></path><path class="cls-1" d="M197.98,29.48v.26c1.14.6,1.33,1.53.53,3.58h0,0s-1.7,4.37-1.7,4.37l-1.7-4.37c-.8-2.04-.57-2.9.33-3.58v-.26h-9.69v-3.85h-.2l-4.9,4.55v.2h1.48v8.33c0,2.56,1.45,4.1,3.86,4.1s3.74-1.63,4.23-3.59h-.22c-.57.89-1.56,1.36-2.44,1.36-.97,0-1.8-.64-1.8-2.4v-7.8h2.58c1.31,0,1.86.35,2.48,1.64l.52,1.31,3.56,9.02c-.72,1.95-1.92,3.67-4.83,2.2h-.19v3.32c3.28.72,4.06-.64,5.94-5.3l3.64-9.23h0c.86-2.19,1.14-2.91,2.55-3.58v-.26h-4.02Z"></path></svg>